<svg t="1607389628022" class="icon" viewBox="0 0 1024 1024" version="1.1" xmlns="http://www.w3.org/2000/svg" p-id="2900" width="300" height="300"><path d="M245.2 912.5c-8.3 0-15.9-3.4-21.4-8.9s-8.9-13-8.9-21.4v-92.9c0-16.7 13.5-30.2 30.2-30.2 8.3 0 15.9 3.4 21.4 8.9s8.9 13 8.9 21.4v92.9c0.1 16.5-13.5 30.2-30.2 30.2z" fill="#90EB7A" p-id="2901"></path><path d="M370.5 912.5c-8.3 0-15.9-3.4-21.4-8.9s-8.9-13-8.9-21.4v-42.9c0-16.7 13.5-30.2 30.2-30.2 8.3 0 15.9 3.4 21.4 8.9s8.9 13 8.9 21.4v42.9c0.1 16.5-13.5 30.2-30.2 30.2z" fill="#00AD95" p-id="2902"></path><path d="M814.7 892c-8.3 0-15.9-3.4-21.4-8.9s-8.9-13-8.9-21.4v-92.9c0-16.7 13.5-30.2 30.2-30.2 8.3 0 15.9 3.4 21.4 8.9s8.9 13 8.9 21.4v92.9c0 16.5-13.5 30.2-30.2 30.2z" fill="#008486" p-id="2903"></path><path d="M541.3 342.9v545.4c0 6.2-5.1 11.3-11.3 11.3h-46.4c-6.2 0-11.3-5.1-11.3-11.3V342.9c0-6.2 5.1-11.3 11.3-11.3H530c6.2-0.1 11.3 4.9 11.3 11.3z" fill="#B05C25" p-id="2904"></path><path d="M541.3 342.9v545.4c0 6.2-5.1 11.3-11.3 11.3h-24.6v-568H530c6.2-0.1 11.3 4.9 11.3 11.3zM428.5 795.3c-5.1 0-9.5-3.9-10-9.1-9.2-105.8 32.4-239.2 34.2-244.8 1.7-5.3 7.3-8.2 12.5-6.5 5.3 1.7 8.2 7.3 6.5 12.5-0.1 0.3-10.7 34.2-20.1 80.3-8.6 42.3-17.9 103.8-13.3 156.8 0.5 5.5-3.6 10.4-9.1 10.8h-0.7zM393.4 725.2c-5.1 0-9.5-3.9-10-9.1-9.2-105.8 32.4-239.2 34.2-244.8 1.7-5.3 7.3-8.2 12.5-6.5 5.3 1.7 8.2 7.3 6.5 12.5-0.1 0.3-10.7 34.2-20.1 80.3-8.6 42.3-17.9 103.8-13.3 156.8 0.5 5.5-3.6 10.4-9.1 10.8h-0.7zM336.7 845.8c-5.1 0-9.5-3.9-10-9.1-9.2-105.8 32.4-239.2 34.2-244.8 1.7-5.3 7.3-8.2 12.5-6.5 5.3 1.7 8.2 7.3 6.5 12.5-0.1 0.3-10.7 34.2-20.1 80.3-8.6 42.3-17.9 103.8-13.3 156.8 0.5 5.5-3.6 10.4-9.1 10.8h-0.7zM253 789.2c-0.4 0-0.8 0-1.3-0.1-5.5-0.7-9.4-5.7-8.7-11.2 13.4-105.4 82.4-226.9 85.3-232 2.7-4.8 8.9-6.5 13.6-3.7 4.8 2.7 6.5 8.8 3.7 13.6-0.2 0.3-17.7 31.1-36.7 74.2-17.4 39.5-39.4 97.6-46.2 150.4-0.5 5.1-4.8 8.8-9.7 8.8zM627.7 805.2h-0.9c-5.5-0.5-9.6-5.3-9.1-10.8 2.6-29.3 2.3-80.3-13.3-157-9.4-46.1-20-79.7-20.1-80.1-1.7-5.3 1.3-10.9 6.5-12.5 5.3-1.7 10.9 1.3 12.5 6.5 1.8 5.6 43.4 139 34.2 244.8-0.3 5.2-4.7 9.1-9.8 9.1z" fill="#8E4A1F" p-id="2905"></path><path d="M597.6 739h-0.9c-5.5-0.5-9.6-5.3-9.1-10.8 2.5-29.3 2.3-80.2-13.3-156.8-9.4-46.1-20-79.9-20.1-80.3-1.7-5.3 1.3-10.9 6.5-12.5 5.3-1.7 10.9 1.3 12.5 6.5 1.8 5.6 43.4 139 34.2 244.8-0.3 5.3-4.6 9.1-9.8 9.1zM659.8 774.5c-1.3 0-2.7-0.3-4-0.8-5.1-2.2-7.4-8.1-5.2-13.1 11.7-27 27.5-75.5 36.9-153.2 5.6-46.7 6.2-81.9 6.2-82.3 0.1-5.5 4.5-9.9 10-9.9h0.2c5.5 0.1 9.9 4.6 9.9 10.1-0.1 5.9-2.6 145.6-44.7 243.1-1.7 3.9-5.4 6.1-9.3 6.1z" fill="#8E4A1F" p-id="2906"></path><path d="M787.8 748.5c-5 0-9.3-3.7-9.9-8.7-6.7-52.8-28.9-111.1-46.3-150.6-18.9-43-36.4-73.7-36.6-74-2.7-4.8-1.1-10.9 3.7-13.6 4.8-2.7 10.9-1.1 13.6 3.7 2.9 5.1 71.9 126.6 85.3 232 0.7 5.5-3.2 10.5-8.7 11.2h-1.1z" fill="#8E4A1F" p-id="2907"></path><path d="M955.8 501.2c0 59.3-66.2 107.4-147.8 107.4-10.1 0-19.9-0.7-29.4-2.1-25.9 16.3-59.7 26.2-96.7 26.2-30.8 0-59.4-6.9-83-18.5-25.6 15-58.1 24-93.5 24h-0.5c-42.6 0-80.9-13.2-107.8-34.2-34.2 18.1-76.2 28.7-121.7 28.7-114.5 0-207.2-67.4-207.2-150.6 0-42.6 24.3-81 63.5-108.4-3.1-10.4-4.8-21.2-4.8-32.3 0-72.8 71.1-133.6 165.7-147.5 42-54 121.3-90.8 212.4-92h4.5c106.3 0 197 48.4 232.7 116.5 109 4.3 195.6 69.9 195.6 150.3 0 22.1-6.6 43.2-18.4 62.1 22.7 18.8 36.4 43.4 36.4 70.4z" fill="#90EB7A" p-id="2908"></path><path d="M955.8 501.2c0 59.3-66.2 107.4-147.8 107.4-10.1 0-19.9-0.7-29.4-2.1-25.9 16.3-59.7 26.2-96.7 26.2-30.8 0-59.4-6.9-83-18.5-25.6 15-58.1 24-93.5 24h-0.5V101.8h4.5c106.3 0 197 48.4 232.7 116.5 109.1 4.3 195.7 69.9 195.7 150.3 0 22.1-6.6 43.2-18.4 62.1 22.7 18.9 36.4 43.5 36.4 70.5z" fill="#00D16C" p-id="2909"></path><path d="M126.9 341.5a207.2 150.6 0 1 0 414.4 0 207.2 150.6 0 1 0-414.4 0Z" fill="#00D16C" p-id="2910"></path><path d="M68.2 482.1a207.2 150.6 0 1 0 414.4 0 207.2 150.6 0 1 0-414.4 0Z" fill="#00AD95" p-id="2911"></path><path d="M534 525.3a147.8 107.4 0 1 0 295.6 0 147.8 107.4 0 1 0-295.6 0Z" fill="#008486" p-id="2912"></path><path d="M523.4 368.6a207.2 150.6 0 1 0 414.4 0 207.2 150.6 0 1 0-414.4 0Z" fill="#00AD95" p-id="2913"></path><path d="M641.2 494.4a157.3 114.3 0 1 0 314.6 0 157.3 114.3 0 1 0-314.6 0Z" fill="#008486" p-id="2914"></path><path d="M653.2 531c0 59.3-66.2 107.4-147.8 107.4h-0.5c-81.4-0.2-147.3-48.2-147.3-107.4s65.9-107.2 147.3-107.4h0.5c81.6-0.1 147.8 47.9 147.8 107.4z" fill="#90EB7A" p-id="2915"></path><path d="M653.2 531c0 59.3-66.2 107.4-147.8 107.4h-0.5V423.5h0.5c81.6 0 147.8 48 147.8 107.5z" fill="#00D16C" p-id="2916"></path><path d="M926.8 891.8c0 8.3-3.4 15.9-8.9 21.4s-13 8.9-21.4 8.9H117c-16.7 0-30.2-13.5-30.2-30.2 0-8.3 3.4-15.9 8.9-21.4s13-8.9 21.4-8.9h779.5c16.7 0.1 30.2 13.6 30.2 30.2z" fill="#00D16C" p-id="2917"></path><path d="M926.8 891.8c0 8.3-3.4 15.9-8.9 21.4s-13 8.9-21.4 8.9H505.4v-60.5h391.2c16.7 0.1 30.2 13.6 30.2 30.2z" fill="#00AD95" p-id="2918"></path></svg>